<mxfile host="app.diagrams.net" modified="2024-06-14T02:41:03.036Z" agent="Mozilla/5.0 (Macintosh; Intel Mac OS X 10_15_7) AppleWebKit/537.36 (KHTML, like Gecko) Chrome/124.0.0.0 Safari/537.36" etag="1SwqI0bxkpZbx18Z0Q9C" version="24.5.4" type="device">
  <diagram name="ページ1" id="nvDeKPAN03JBPjRx0U5T">
    <mxGraphModel dx="954" dy="606" grid="1" gridSize="10" guides="1" tooltips="1" connect="1" arrows="1" fold="1" page="1" pageScale="1" pageWidth="827" pageHeight="1169" math="0" shadow="0">
      <root>
        <mxCell id="0" />
        <mxCell id="1" parent="0" />
        <mxCell id="jCPDQWYM1sD-MViyLvgH-3" value="" style="edgeStyle=orthogonalEdgeStyle;rounded=0;orthogonalLoop=1;jettySize=auto;html=1;" edge="1" parent="1" source="jCPDQWYM1sD-MViyLvgH-1">
          <mxGeometry relative="1" as="geometry">
            <mxPoint x="535" y="315" as="targetPoint" />
          </mxGeometry>
        </mxCell>
        <mxCell id="jCPDQWYM1sD-MViyLvgH-1" value="Client" style="sketch=0;outlineConnect=0;fontColor=#232F3E;gradientColor=none;strokeColor=#232F3E;fillColor=#ffffff;dashed=0;verticalLabelPosition=bottom;verticalAlign=top;align=center;html=1;fontSize=12;fontStyle=0;aspect=fixed;shape=mxgraph.aws4.resourceIcon;resIcon=mxgraph.aws4.client;" vertex="1" parent="1">
          <mxGeometry x="380" y="280" width="70" height="70" as="geometry" />
        </mxCell>
        <mxCell id="jCPDQWYM1sD-MViyLvgH-4" value="" style="outlineConnect=0;dashed=0;verticalLabelPosition=bottom;verticalAlign=top;align=center;html=1;shape=mxgraph.aws3.api_gateway;fillColor=#D9A741;gradientColor=none;" vertex="1" parent="1">
          <mxGeometry x="540" y="268.5" width="76.5" height="93" as="geometry" />
        </mxCell>
      </root>
    </mxGraphModel>
  </diagram>
</mxfile>
